<svg id="Capa_1" data-name="Capa 1" xmlns="http://www.w3.org/2000/svg" viewBox="0 0 74.12 73"><defs><style>.cls-1{fill:#fff;}</style></defs><path class="cls-1" d="M447.56,127.5l-2.62-12.73-7.62,1.57,6.2-4.7-7.85-10.36-6.74,5.1,3.81-7.54L421.13,93,417,101.17V92H404v7.18l-3-6.51-11.78,5.5,3.47,7.43-6.37-5.17-8.2,10.08,6.24,5.08-7.82-1.87-3,12.65,7,1.67-7.07,1.46,2.62,12.73,7.62-1.57-6.2,4.7,7.85,10.36,6.74-5.1-3.81,7.54L399.87,164l4.13-8.19V165h13v-7.18l3,6.51,11.78-5.5-3.47-7.43,6.37,5.17,8.2-10.08-6.24-5.08,7.82,1.87,3-12.65-7-1.67Zm-34,17.27a16.25,16.25,0,1,1,13.24-13.23A16.06,16.06,0,0,1,413.53,144.77Z" transform="translate(-373.44 -92)"/></svg>