<svg id="Capa_1" data-name="Capa 1" xmlns="http://www.w3.org/2000/svg" viewBox="0 0 31.71 32.02"><defs><style>.cls-1{fill:#fff;}</style></defs><circle class="cls-1" cx="15.86" cy="7.91" r="7.41"/><path class="cls-1" d="M51.09,134a6.91,6.91,0,1,1-6.9,6.9,6.91,6.91,0,0,1,6.9-6.9m0-1a7.91,7.91,0,1,0,7.91,7.9,7.9,7.9,0,0,0-7.91-7.9Z" transform="translate(-35.24 -132.98)"/><path class="cls-1" d="M35.78,164.5a15.37,15.37,0,0,1,30.63,0Z" transform="translate(-35.24 -132.98)"/><path class="cls-1" d="M51.09,151a15,15,0,0,1,14.76,13H36.34a14.94,14.94,0,0,1,14.75-13m0-1a15.93,15.93,0,0,0-15.85,15H67a15.93,15.93,0,0,0-15.86-15Z" transform="translate(-35.24 -132.98)"/></svg>